<svg width="75" height="25" viewBox="0 0 75 25" fill="none" xmlns="http://www.w3.org/2000/svg">
<path d="M23.8671 11.2923V5.50635H27.4448V11.7206C27.4448 15.3825 25.2792 18.3383 21.098 18.3383C16.9415 18.3383 14.7759 15.3825 14.7759 11.7206V5.50635H18.3535V11.3152C18.3535 13.2356 19.2608 14.8762 21.0999 14.8762C22.9352 14.8781 23.8671 13.2375 23.8671 11.2923Z" fill="#103035"/>
<path d="M32.1724 12.1998V18.0086H28.5947V11.7715C28.5947 8.13435 30.7356 5.15381 35.0934 5.15381C39.4511 5.15381 41.6432 8.10961 41.6432 11.7715V18.0105H38.0656V12.1998C38.0656 10.2793 37.1337 8.63872 35.0934 8.63872C33.0796 8.63872 32.1724 10.2813 32.1724 12.1998Z" fill="#103035"/>
<path d="M42.9189 20.4848L45.8911 18.8689C46.4453 19.9556 47.4778 20.814 49.1651 20.814C51.2814 20.814 52.7162 19.3237 52.7162 16.8742V16.6477C52.0368 17.5061 50.8278 18.1627 49.0645 18.1627C45.5628 18.1627 42.7671 15.4353 42.7671 11.722C42.7671 8.10961 45.6881 5.15381 49.5182 5.15381C53.4223 5.15381 56.2939 7.95734 56.2939 11.722V16.7734C56.2939 21.2194 53.2704 24.0991 49.2164 24.0991C46.2935 24.0972 44.052 22.8087 42.9189 20.4848ZM52.6669 11.644C52.6669 9.85111 51.2567 8.53785 49.4688 8.53785C47.7056 8.53785 46.2954 9.85111 46.2954 11.644C46.2954 13.4369 47.7056 14.7768 49.4688 14.7768C51.2567 14.7768 52.6669 13.4388 52.6669 11.644Z" fill="#103035"/>
<path d="M57.1572 2.22304C57.1572 1.01064 58.165 0 59.3741 0C60.5831 0 61.5662 1.01064 61.5662 2.22304C61.5662 3.46017 60.5831 4.44607 59.3741 4.44607C58.165 4.44607 57.1572 3.46017 57.1572 2.22304ZM61.1619 5.5062V18.0089H57.5843V5.5062H61.1619Z" fill="#103035"/>
<path d="M62.2798 11.6442C62.2798 8.03181 64.899 5.05127 68.7537 5.05127C72.7091 5.05127 75 7.98233 75 11.3911V12.4512H65.7303C65.9827 14.1185 67.2676 15.23 69.0555 15.23C70.4164 15.23 71.5494 14.5734 72.1283 13.4124L74.8747 14.8018C73.7909 17.0496 71.726 18.3381 69.0821 18.3381C65.2008 18.3381 62.2798 15.6354 62.2798 11.6442ZM71.447 10.4585C71.2951 9.16997 70.238 8.18598 68.7272 8.18598C67.1652 8.18598 66.1327 9.19662 65.8802 10.4585H71.447Z" fill="#103035"/>
<path d="M6.95604 12.419C8.99636 12.419 9.92826 14.0673 9.92826 15.9877V18.0109H13.5059V15.7193C13.5059 13.5267 12.7202 11.6596 11.1562 10.5119C12.5019 9.66117 13.3009 8.19564 13.3009 6.41607C13.3009 2.80364 10.3534 1.01074 6.5252 1.01074H0V18.0109H3.62701L3.65168 12.419H6.95604ZM3.65168 9.29574L3.67636 4.42143H6.57265C8.23527 4.42143 9.52019 5.12945 9.52019 6.79672C9.52019 8.38787 8.25994 9.29764 6.52331 9.29764H3.65168V9.29574Z" fill="#103035"/>
</svg>
